<svg width="126" height="126" viewBox="0 0 126 126" fill="none" xmlns="http://www.w3.org/2000/svg">
<rect width="126" height="126" fill="white"/>
<rect x="9" width="6" height="6" fill="white"/>
<rect x="9" y="6" width="6" height="6" fill="white"/>
<rect x="9" y="12" width="6" height="6" fill="white"/>
<rect x="9" y="18" width="6" height="6" fill="white"/>
<rect x="9" y="24" width="6" height="6" fill="white"/>
<rect x="9" y="30" width="6" height="6" fill="white"/>
<rect x="9" y="36" width="6" height="6" fill="white"/>
<rect x="9" y="42" width="6" height="6" fill="white"/>
<rect x="9" y="48" width="6" height="6" fill="white"/>
<rect x="9" y="54" width="6" height="6" fill="white"/>
<rect x="9" y="60" width="6" height="6" fill="white"/>
<rect x="9" y="66" width="6" height="6" fill="white"/>
<rect x="9" y="72" width="6" height="6" fill="white"/>
<rect x="9" y="78" width="6" height="6" fill="white"/>
<rect x="9" y="84" width="6" height="6" fill="white"/>
<rect x="9" y="90" width="6" height="6" fill="white"/>
<rect x="9" y="96" width="6" height="6" fill="white"/>
<rect x="9" y="102" width="6" height="6" fill="white"/>
<rect x="9" y="108" width="6" height="6" fill="white"/>
<rect x="9" y="114" width="6" height="6" fill="white"/>
<rect x="9" y="120" width="6" height="6" fill="white"/>
<rect x="15" width="6" height="6" fill="white"/>
<rect x="15" y="6" width="6" height="6" fill="white"/>
<rect x="15" y="12" width="6" height="6" fill="white"/>
<rect x="15" y="18" width="6" height="6" fill="white"/>
<rect x="15" y="24" width="6" height="6" fill="white"/>
<rect x="15" y="30" width="6" height="6" fill="white"/>
<rect x="15" y="36" width="6" height="6" fill="white"/>
<rect x="15" y="42" width="6" height="6" fill="white"/>
<rect x="15" y="48" width="6" height="6" fill="white"/>
<rect x="15" y="54" width="6" height="6" fill="white"/>
<rect x="15" y="60" width="6" height="6" fill="white"/>
<rect x="15" y="66" width="6" height="6" fill="white"/>
<rect x="15" y="72" width="6" height="6" fill="white"/>
<rect x="15" y="78" width="6" height="6" fill="white"/>
<rect x="15" y="84" width="6" height="6" fill="white"/>
<rect x="15" y="90" width="6" height="6" fill="white"/>
<rect x="15" y="96" width="6" height="6" fill="white"/>
<rect x="15" y="102" width="6" height="6" fill="white"/>
<rect x="15" y="108" width="6" height="6" fill="white"/>
<rect x="15" y="114" width="6" height="6" fill="white"/>
<rect x="15" y="120" width="6" height="6" fill="white"/>
<rect x="21" width="6" height="6" fill="white"/>
<rect x="21" y="6" width="6" height="6" fill="white"/>
<rect x="21" y="12" width="6" height="6" fill="white"/>
<rect x="21" y="18" width="6" height="6" fill="white"/>
<rect x="21" y="24" width="6" height="6" fill="white"/>
<rect x="21" y="30" width="6" height="6" fill="white"/>
<rect x="21" y="36" width="6" height="6" fill="white"/>
<rect x="21" y="42" width="6" height="6" fill="white"/>
<rect x="21" y="48" width="6" height="6" fill="black"/>
<rect x="21" y="54" width="6" height="6" fill="white"/>
<rect x="21" y="60" width="6" height="6" fill="white"/>
<rect x="21" y="66" width="6" height="6" fill="white"/>
<rect x="21" y="72" width="6" height="6" fill="white"/>
<rect x="21" y="78" width="6" height="6" fill="black"/>
<rect x="21" y="84" width="6" height="6" fill="black"/>
<rect x="21" y="90" width="6" height="6" fill="black"/>
<rect x="21" y="96" width="6" height="6" fill="white"/>
<rect x="21" y="102" width="6" height="6" fill="white"/>
<rect x="21" y="108" width="6" height="6" fill="white"/>
<rect x="21" y="114" width="6" height="6" fill="white"/>
<rect x="21" y="120" width="6" height="6" fill="white"/>
<rect x="27" width="6" height="6" fill="white"/>
<rect x="27" y="6" width="6" height="6" fill="white"/>
<rect x="27" y="12" width="6" height="6" fill="white"/>
<rect x="27" y="18" width="6" height="6" fill="white"/>
<rect x="27" y="24" width="6" height="6" fill="white"/>
<rect x="27" y="30" width="6" height="6" fill="black"/>
<rect x="27" y="36" width="6" height="6" fill="white"/>
<rect x="27" y="42" width="6" height="6" fill="white"/>
<rect x="27" y="48" width="6" height="6" fill="black"/>
<rect x="27" y="54" width="6" height="6" fill="black"/>
<rect x="27" y="60" width="6" height="6" fill="white"/>
<rect x="27" y="66" width="6" height="6" fill="white"/>
<rect x="27" y="72" width="6" height="6" fill="black"/>
<rect x="27" y="78" width="6" height="6" fill="white"/>
<rect x="27" y="84" width="6" height="6" fill="white"/>
<rect x="27" y="90" width="6" height="6" fill="white"/>
<rect x="27" y="96" width="6" height="6" fill="black"/>
<rect x="27" y="102" width="6" height="6" fill="white"/>
<rect x="27" y="108" width="6" height="6" fill="white"/>
<rect x="27" y="114" width="6" height="6" fill="white"/>
<rect x="27" y="120" width="6" height="6" fill="white"/>
<rect x="33" width="6" height="6" fill="white"/>
<rect x="33" y="6" width="6" height="6" fill="white"/>
<rect x="33" y="12" width="6" height="6" fill="white"/>
<rect x="33" y="18" width="6" height="6" fill="white"/>
<rect x="33" y="24" width="6" height="6" fill="white"/>
<rect x="33" y="30" width="6" height="6" fill="black"/>
<rect x="33" y="36" width="6" height="6" fill="black"/>
<rect x="33" y="42" width="6" height="6" fill="black"/>
<rect x="33" y="48" width="6" height="6" fill="black"/>
<rect x="33" y="54" width="6" height="6" fill="black"/>
<rect x="33" y="60" width="6" height="6" fill="white"/>
<rect x="33" y="66" width="6" height="6" fill="black"/>
<rect x="33" y="72" width="6" height="6" fill="white"/>
<rect x="33" y="78" width="6" height="6" fill="white"/>
<rect x="33" y="84" width="6" height="6" fill="white"/>
<rect x="33" y="90" width="6" height="6" fill="white"/>
<rect x="33" y="96" width="6" height="6" fill="white"/>
<rect x="33" y="102" width="6" height="6" fill="black"/>
<rect x="33" y="108" width="6" height="6" fill="white"/>
<rect x="33" y="114" width="6" height="6" fill="white"/>
<rect x="33" y="120" width="6" height="6" fill="white"/>
<rect x="39" width="6" height="6" fill="white"/>
<rect x="39" y="6" width="6" height="6" fill="white"/>
<rect x="39" y="12" width="6" height="6" fill="black"/>
<rect x="39" y="18" width="6" height="6" fill="black"/>
<rect x="39" y="24" width="6" height="6" fill="black"/>
<rect x="39" y="30" width="6" height="6" fill="black"/>
<rect x="39" y="36" width="6" height="6" fill="white"/>
<rect x="39" y="42" width="6" height="6" fill="white"/>
<rect x="39" y="48" width="6" height="6" fill="white"/>
<rect x="39" y="54" width="6" height="6" fill="black"/>
<rect x="39" y="60" width="6" height="6" fill="black"/>
<rect x="39" y="66" width="6" height="6" fill="white"/>
<rect x="39" y="72" width="6" height="6" fill="white"/>
<rect x="39" y="78" width="6" height="6" fill="black"/>
<rect x="39" y="84" width="6" height="6" fill="white"/>
<rect x="39" y="90" width="6" height="6" fill="white"/>
<rect x="39" y="96" width="6" height="6" fill="white"/>
<rect x="39" y="102" width="6" height="6" fill="white"/>
<rect x="39" y="108" width="6" height="6" fill="black"/>
<rect x="39" y="114" width="6" height="6" fill="white"/>
<rect x="39" y="120" width="6" height="6" fill="white"/>
<rect x="45" width="6" height="6" fill="white"/>
<rect x="45" y="6" width="6" height="6" fill="white"/>
<rect x="45" y="12" width="6" height="6" fill="black"/>
<rect x="45" y="18" width="6" height="6" fill="black"/>
<rect x="45" y="24" width="6" height="6" fill="black"/>
<rect x="45" y="30" width="6" height="6" fill="black"/>
<rect x="45" y="36" width="6" height="6" fill="white"/>
<rect x="45" y="42" width="6" height="6" fill="black"/>
<rect x="45" y="48" width="6" height="6" fill="white"/>
<rect x="45" y="54" width="6" height="6" fill="white"/>
<rect x="45" y="60" width="6" height="6" fill="white"/>
<rect x="45" y="66" width="6" height="6" fill="white"/>
<rect x="45" y="72" width="6" height="6" fill="white"/>
<rect x="45" y="78" width="6" height="6" fill="white"/>
<rect x="45" y="84" width="6" height="6" fill="black"/>
<rect x="45" y="90" width="6" height="6" fill="white"/>
<rect x="45" y="96" width="6" height="6" fill="white"/>
<rect x="45" y="102" width="6" height="6" fill="white"/>
<rect x="45" y="108" width="6" height="6" fill="black"/>
<rect x="45" y="114" width="6" height="6" fill="white"/>
<rect x="45" y="120" width="6" height="6" fill="white"/>
<rect x="51" width="6" height="6" fill="white"/>
<rect x="51" y="6" width="6" height="6" fill="white"/>
<rect x="51" y="12" width="6" height="6" fill="black"/>
<rect x="51" y="18" width="6" height="6" fill="black"/>
<rect x="51" y="24" width="6" height="6" fill="black"/>
<rect x="51" y="30" width="6" height="6" fill="black"/>
<rect x="51" y="36" width="6" height="6" fill="white"/>
<rect x="51" y="42" width="6" height="6" fill="white"/>
<rect x="51" y="48" width="6" height="6" fill="white"/>
<rect x="51" y="54" width="6" height="6" fill="white"/>
<rect x="51" y="60" width="6" height="6" fill="white"/>
<rect x="51" y="66" width="6" height="6" fill="white"/>
<rect x="51" y="72" width="6" height="6" fill="white"/>
<rect x="51" y="78" width="6" height="6" fill="white"/>
<rect x="51" y="84" width="6" height="6" fill="white"/>
<rect x="51" y="90" width="6" height="6" fill="black"/>
<rect x="51" y="96" width="6" height="6" fill="white"/>
<rect x="51" y="102" width="6" height="6" fill="white"/>
<rect x="51" y="108" width="6" height="6" fill="black"/>
<rect x="51" y="114" width="6" height="6" fill="white"/>
<rect x="51" y="120" width="6" height="6" fill="white"/>
<rect x="57" width="6" height="6" fill="white"/>
<rect x="57" y="6" width="6" height="6" fill="white"/>
<rect x="57" y="12" width="6" height="6" fill="black"/>
<rect x="57" y="18" width="6" height="6" fill="black"/>
<rect x="57" y="24" width="6" height="6" fill="black"/>
<rect x="57" y="30" width="6" height="6" fill="black"/>
<rect x="57" y="36" width="6" height="6" fill="white"/>
<rect x="57" y="42" width="6" height="6" fill="white"/>
<rect x="57" y="48" width="6" height="6" fill="white"/>
<rect x="57" y="54" width="6" height="6" fill="white"/>
<rect x="57" y="60" width="6" height="6" fill="black"/>
<rect x="57" y="66" width="6" height="6" fill="black"/>
<rect x="57" y="72" width="6" height="6" fill="white"/>
<rect x="57" y="78" width="6" height="6" fill="white"/>
<rect x="57" y="84" width="6" height="6" fill="white"/>
<rect x="57" y="90" width="6" height="6" fill="black"/>
<rect x="57" y="96" width="6" height="6" fill="white"/>
<rect x="57" y="102" width="6" height="6" fill="white"/>
<rect x="57" y="108" width="6" height="6" fill="black"/>
<rect x="57" y="114" width="6" height="6" fill="white"/>
<rect x="57" y="120" width="6" height="6" fill="white"/>
<rect x="63" width="6" height="6" fill="white"/>
<rect x="63" y="6" width="6" height="6" fill="white"/>
<rect x="63" y="12" width="6" height="6" fill="white"/>
<rect x="63" y="18" width="6" height="6" fill="white"/>
<rect x="63" y="24" width="6" height="6" fill="white"/>
<rect x="63" y="30" width="6" height="6" fill="black"/>
<rect x="63" y="36" width="6" height="6" fill="black"/>
<rect x="63" y="42" width="6" height="6" fill="black"/>
<rect x="63" y="48" width="6" height="6" fill="black"/>
<rect x="63" y="54" width="6" height="6" fill="black"/>
<rect x="63" y="60" width="6" height="6" fill="white"/>
<rect x="63" y="66" width="6" height="6" fill="black"/>
<rect x="63" y="72" width="6" height="6" fill="white"/>
<rect x="63" y="78" width="6" height="6" fill="white"/>
<rect x="63" y="84" width="6" height="6" fill="white"/>
<rect x="63" y="90" width="6" height="6" fill="black"/>
<rect x="63" y="96" width="6" height="6" fill="white"/>
<rect x="63" y="102" width="6" height="6" fill="white"/>
<rect x="63" y="108" width="6" height="6" fill="black"/>
<rect x="63" y="114" width="6" height="6" fill="white"/>
<rect x="63" y="120" width="6" height="6" fill="white"/>
<rect x="69" width="6" height="6" fill="white"/>
<rect x="69" y="6" width="6" height="6" fill="white"/>
<rect x="69" y="12" width="6" height="6" fill="white"/>
<rect x="69" y="18" width="6" height="6" fill="white"/>
<rect x="69" y="24" width="6" height="6" fill="white"/>
<rect x="69" y="30" width="6" height="6" fill="black"/>
<rect x="69" y="36" width="6" height="6" fill="white"/>
<rect x="69" y="42" width="6" height="6" fill="white"/>
<rect x="69" y="48" width="6" height="6" fill="white"/>
<rect x="69" y="54" width="6" height="6" fill="white"/>
<rect x="69" y="60" width="6" height="6" fill="white"/>
<rect x="69" y="66" width="6" height="6" fill="black"/>
<rect x="69" y="72" width="6" height="6" fill="white"/>
<rect x="69" y="78" width="6" height="6" fill="white"/>
<rect x="69" y="84" width="6" height="6" fill="black"/>
<rect x="69" y="90" width="6" height="6" fill="white"/>
<rect x="69" y="96" width="6" height="6" fill="white"/>
<rect x="69" y="102" width="6" height="6" fill="white"/>
<rect x="69" y="108" width="6" height="6" fill="black"/>
<rect x="69" y="114" width="6" height="6" fill="white"/>
<rect x="69" y="120" width="6" height="6" fill="white"/>
<rect x="75" width="6" height="6" fill="white"/>
<rect x="75" y="6" width="6" height="6" fill="white"/>
<rect x="75" y="12" width="6" height="6" fill="white"/>
<rect x="75" y="18" width="6" height="6" fill="white"/>
<rect x="75" y="24" width="6" height="6" fill="white"/>
<rect x="75" y="30" width="6" height="6" fill="white"/>
<rect x="75" y="36" width="6" height="6" fill="white"/>
<rect x="75" y="42" width="6" height="6" fill="white"/>
<rect x="75" y="48" width="6" height="6" fill="white"/>
<rect x="75" y="54" width="6" height="6" fill="white"/>
<rect x="75" y="60" width="6" height="6" fill="white"/>
<rect x="75" y="66" width="6" height="6" fill="black"/>
<rect x="75" y="72" width="6" height="6" fill="white"/>
<rect x="75" y="78" width="6" height="6" fill="white"/>
<rect x="75" y="84" width="6" height="6" fill="white"/>
<rect x="75" y="90" width="6" height="6" fill="white"/>
<rect x="75" y="96" width="6" height="6" fill="white"/>
<rect x="75" y="102" width="6" height="6" fill="white"/>
<rect x="75" y="108" width="6" height="6" fill="black"/>
<rect x="75" y="114" width="6" height="6" fill="white"/>
<rect x="75" y="120" width="6" height="6" fill="white"/>
<rect x="81" width="6" height="6" fill="white"/>
<rect x="81" y="6" width="6" height="6" fill="white"/>
<rect x="81" y="12" width="6" height="6" fill="white"/>
<rect x="81" y="18" width="6" height="6" fill="white"/>
<rect x="81" y="24" width="6" height="6" fill="white"/>
<rect x="81" y="30" width="6" height="6" fill="white"/>
<rect x="81" y="36" width="6" height="6" fill="white"/>
<rect x="81" y="42" width="6" height="6" fill="white"/>
<rect x="81" y="48" width="6" height="6" fill="white"/>
<rect x="81" y="54" width="6" height="6" fill="white"/>
<rect x="81" y="60" width="6" height="6" fill="white"/>
<rect x="81" y="66" width="6" height="6" fill="black"/>
<rect x="81" y="72" width="6" height="6" fill="white"/>
<rect x="81" y="78" width="6" height="6" fill="white"/>
<rect x="81" y="84" width="6" height="6" fill="white"/>
<rect x="81" y="90" width="6" height="6" fill="white"/>
<rect x="81" y="96" width="6" height="6" fill="white"/>
<rect x="81" y="102" width="6" height="6" fill="black"/>
<rect x="81" y="108" width="6" height="6" fill="white"/>
<rect x="81" y="114" width="6" height="6" fill="white"/>
<rect x="81" y="120" width="6" height="6" fill="white"/>
<rect x="87" width="6" height="6" fill="white"/>
<rect x="87" y="6" width="6" height="6" fill="white"/>
<rect x="87" y="12" width="6" height="6" fill="white"/>
<rect x="87" y="18" width="6" height="6" fill="white"/>
<rect x="87" y="24" width="6" height="6" fill="white"/>
<rect x="87" y="30" width="6" height="6" fill="white"/>
<rect x="87" y="36" width="6" height="6" fill="white"/>
<rect x="87" y="42" width="6" height="6" fill="white"/>
<rect x="87" y="48" width="6" height="6" fill="white"/>
<rect x="87" y="54" width="6" height="6" fill="white"/>
<rect x="87" y="60" width="6" height="6" fill="white"/>
<rect x="87" y="66" width="6" height="6" fill="white"/>
<rect x="87" y="72" width="6" height="6" fill="black"/>
<rect x="87" y="78" width="6" height="6" fill="white"/>
<rect x="87" y="84" width="6" height="6" fill="white"/>
<rect x="87" y="90" width="6" height="6" fill="white"/>
<rect x="87" y="96" width="6" height="6" fill="black"/>
<rect x="87" y="102" width="6" height="6" fill="white"/>
<rect x="87" y="108" width="6" height="6" fill="white"/>
<rect x="87" y="114" width="6" height="6" fill="white"/>
<rect x="87" y="120" width="6" height="6" fill="white"/>
<rect x="93" width="6" height="6" fill="white"/>
<rect x="93" y="6" width="6" height="6" fill="white"/>
<rect x="93" y="12" width="6" height="6" fill="white"/>
<rect x="93" y="18" width="6" height="6" fill="white"/>
<rect x="93" y="24" width="6" height="6" fill="white"/>
<rect x="93" y="30" width="6" height="6" fill="white"/>
<rect x="93" y="36" width="6" height="6" fill="white"/>
<rect x="93" y="42" width="6" height="6" fill="white"/>
<rect x="93" y="48" width="6" height="6" fill="white"/>
<rect x="93" y="54" width="6" height="6" fill="white"/>
<rect x="93" y="60" width="6" height="6" fill="white"/>
<rect x="93" y="66" width="6" height="6" fill="black"/>
<rect x="93" y="72" width="6" height="6" fill="white"/>
<rect x="93" y="78" width="6" height="6" fill="white"/>
<rect x="93" y="84" width="6" height="6" fill="black"/>
<rect x="93" y="90" width="6" height="6" fill="black"/>
<rect x="93" y="96" width="6" height="6" fill="white"/>
<rect x="93" y="102" width="6" height="6" fill="white"/>
<rect x="93" y="108" width="6" height="6" fill="white"/>
<rect x="93" y="114" width="6" height="6" fill="white"/>
<rect x="93" y="120" width="6" height="6" fill="white"/>
<rect x="99" width="6" height="6" fill="white"/>
<rect x="99" y="6" width="6" height="6" fill="white"/>
<rect x="99" y="12" width="6" height="6" fill="white"/>
<rect x="99" y="18" width="6" height="6" fill="white"/>
<rect x="99" y="24" width="6" height="6" fill="white"/>
<rect x="99" y="30" width="6" height="6" fill="white"/>
<rect x="99" y="36" width="6" height="6" fill="white"/>
<rect x="99" y="42" width="6" height="6" fill="white"/>
<rect x="99" y="48" width="6" height="6" fill="white"/>
<rect x="99" y="54" width="6" height="6" fill="white"/>
<rect x="99" y="60" width="6" height="6" fill="black"/>
<rect x="99" y="66" width="6" height="6" fill="black"/>
<rect x="99" y="72" width="6" height="6" fill="black"/>
<rect x="99" y="78" width="6" height="6" fill="black"/>
<rect x="99" y="84" width="6" height="6" fill="white"/>
<rect x="99" y="90" width="6" height="6" fill="white"/>
<rect x="99" y="96" width="6" height="6" fill="white"/>
<rect x="99" y="102" width="6" height="6" fill="white"/>
<rect x="99" y="108" width="6" height="6" fill="white"/>
<rect x="99" y="114" width="6" height="6" fill="white"/>
<rect x="99" y="120" width="6" height="6" fill="white"/>
<rect x="105" width="6" height="6" fill="white"/>
<rect x="105" y="6" width="6" height="6" fill="white"/>
<rect x="105" y="12" width="6" height="6" fill="white"/>
<rect x="105" y="18" width="6" height="6" fill="white"/>
<rect x="105" y="24" width="6" height="6" fill="white"/>
<rect x="105" y="30" width="6" height="6" fill="white"/>
<rect x="105" y="36" width="6" height="6" fill="white"/>
<rect x="105" y="42" width="6" height="6" fill="white"/>
<rect x="105" y="48" width="6" height="6" fill="white"/>
<rect x="105" y="54" width="6" height="6" fill="white"/>
<rect x="105" y="60" width="6" height="6" fill="white"/>
<rect x="105" y="66" width="6" height="6" fill="white"/>
<rect x="105" y="72" width="6" height="6" fill="white"/>
<rect x="105" y="78" width="6" height="6" fill="white"/>
<rect x="105" y="84" width="6" height="6" fill="white"/>
<rect x="105" y="90" width="6" height="6" fill="white"/>
<rect x="105" y="96" width="6" height="6" fill="white"/>
<rect x="105" y="102" width="6" height="6" fill="white"/>
<rect x="105" y="108" width="6" height="6" fill="white"/>
<rect x="105" y="114" width="6" height="6" fill="white"/>
<rect x="105" y="120" width="6" height="6" fill="white"/>
<rect x="111" width="6" height="6" fill="white"/>
<rect x="111" y="6" width="6" height="6" fill="white"/>
<rect x="111" y="12" width="6" height="6" fill="white"/>
<rect x="111" y="18" width="6" height="6" fill="white"/>
<rect x="111" y="24" width="6" height="6" fill="white"/>
<rect x="111" y="30" width="6" height="6" fill="white"/>
<rect x="111" y="36" width="6" height="6" fill="white"/>
<rect x="111" y="42" width="6" height="6" fill="white"/>
<rect x="111" y="48" width="6" height="6" fill="white"/>
<rect x="111" y="54" width="6" height="6" fill="white"/>
<rect x="111" y="60" width="6" height="6" fill="white"/>
<rect x="111" y="66" width="6" height="6" fill="white"/>
<rect x="111" y="72" width="6" height="6" fill="white"/>
<rect x="111" y="78" width="6" height="6" fill="white"/>
<rect x="111" y="84" width="6" height="6" fill="white"/>
<rect x="111" y="90" width="6" height="6" fill="white"/>
<rect x="111" y="96" width="6" height="6" fill="white"/>
<rect x="111" y="102" width="6" height="6" fill="white"/>
<rect x="111" y="108" width="6" height="6" fill="white"/>
<rect x="111" y="114" width="6" height="6" fill="white"/>
<rect x="111" y="120" width="6" height="6" fill="white"/>
</svg>
